<?xml version="1.0" encoding="UTF-8"?>
<svg width="119px" height="49px" viewBox="0 0 119 49" version="1.1" xmlns="http://www.w3.org/2000/svg" xmlns:xlink="http://www.w3.org/1999/xlink">
    <!-- Generator: Sketch 58 (84663) - https://sketch.com -->
    <title>pulse-logo</title>
    <desc>Created with Sketch.</desc>
    <defs>
        <linearGradient x1="100%" y1="41.5224914%" x2="0%" y2="58.4775086%" id="linearGradient-1">
            <stop stop-color="#23EA76" offset="0%"></stop>
            <stop stop-color="#00AB6A" offset="100%"></stop>
        </linearGradient>
    </defs>
    <g id="Page-1" stroke="none" stroke-width="1" fill="none" fill-rule="evenodd">
        <g id="pulse-logo" fill="url(#linearGradient-1)" fill-rule="nonzero">
            <path d="M15.9690534,9.9817291 C21.0920237,9.9817291 26.0895733,13.0908624 28.118074,18.75245 L28.1185452,10.5655299 L34.5608863,10.5655299 L34.5608863,26.4568429 C34.5608863,30.800408 36.7429893,33.2919529 40.5751973,33.2919529 C44.3016137,33.2919529 46.9105309,30.6951314 46.9105309,26.3509613 L46.9105309,10.5655299 L53.351048,10.5655299 L53.351048,38.5352089 L46.9105309,38.5352089 L46.9105309,34.1916438 C45.1005224,36.8404985 42.4922133,39.1172551 38.1267915,39.1172551 C32.3742846,39.1172551 28.8157032,35.6225659 28.2106927,30.0997616 C26.2532939,35.9182729 21.2087347,39.1173156 15.9690534,39.1173156 C11.3379367,39.1173156 8.41103694,36.7873157 6.44173315,34.1917043 L6.44173315,49 L0,49 L0,10.5655904 L6.44173315,10.5655904 L6.44173315,15.2268002 C8.5174365,12.3135441 11.4449443,9.9817291 15.9690534,9.9817291 Z M105.532248,9.98166859 C114.475891,9.98166859 119,16.9759035 119,25.026534 C119,25.6091852 118.947104,26.1930465 118.894816,26.827731 L98.2399265,26.827731 C98.9318276,31.3842693 102.17975,33.9260323 106.331765,33.9260323 C109.473288,33.9260323 111.707678,32.7613349 113.943893,30.5892498 L117.722597,33.9260323 C115.061392,37.1048999 111.389088,39.1711034 106.224149,39.1711034 C100.848661,39.1711034 96.2846213,36.6094156 93.8029951,32.3839844 C92.8284943,36.8505003 88.6947895,39.0652823 83.5880996,39.0652823 C83.0374971,39.0652823 82.4775557,39.0281088 81.9135676,38.9701801 L81.4899003,38.9230985 L81.4899003,33.7542621 C82.2626651,33.9031014 83.019622,33.9793361 83.7486109,33.9793361 C86.4547128,33.9793361 88.042441,32.8658278 88.1116701,31.0828007 L88.1140327,30.9601984 L88.1140327,30.8537118 C88.1140327,28.6816267 85.1324132,27.9398506 81.8328109,26.933068 C77.7364736,25.7855189 73.1752535,24.1206125 73.0510572,18.9411648 L73.0484635,18.7233126 L73.0484635,18.616826 C73.0484635,13.3197216 77.4661731,10.0888208 83.0567098,10.0888208 C86.4632643,10.0888208 90.1705367,11.2329275 93.1107863,13.0902755 L93.3841548,13.2664783 L90.8281334,17.8218065 C88.1140327,16.1803395 85.2388127,15.1729519 82.8968065,15.1729519 C80.4544661,15.1729519 79.0266375,16.285154 78.9600302,17.8639792 L78.9575909,17.9803264 L78.9575909,18.0874181 C78.9575909,20.0229567 81.7620467,20.881667 84.9127297,21.8861419 L85.2923165,22.0074568 C87.6032218,22.7245426 90.0834514,23.6268626 91.8073875,25.1794727 C91.8020122,25.0061099 91.7994094,24.8314491 91.7994094,24.6556459 L91.7994094,24.5491593 C91.7994094,16.5523771 97.4951296,9.98166859 105.532248,9.98166859 Z M70.9106228,24.4283938 L70.9106228,38.5711481 L64.2220427,38.5711481 L64.2220427,24.4283938 L70.9106228,24.4283938 Z M62.0691237,0 L62.0691237,38.5711481 L55.6845423,38.5711481 L55.6845423,0 L62.0691237,0 Z M79.4487313,29.7109772 L79.4487313,38.5711481 L73.0635419,38.5711481 L73.0635419,29.7109772 L79.4487313,29.7109772 Z M14.4788517,15.54505 C10.1146458,15.54505 6.28182982,19.1462339 6.28182982,24.4971866 L6.28182982,24.6036732 C6.28182982,30.0060541 10.1146458,33.5564148 14.4788517,33.5564148 C18.8977772,33.5564148 22.5171861,30.1119357 22.5171861,24.6036732 L22.5171861,24.4971866 C22.5171861,19.0948057 18.8442735,15.54505 14.4788517,15.54505 Z M105.480568,15.2267397 C101.540745,15.2267397 98.7719243,18.2476925 98.1864228,22.5900475 L112.612987,22.5900475 C112.187996,18.4582456 109.738375,15.2267397 105.480568,15.2267397 Z" id="Combined-Shape"></path>
        </g>
    </g>
</svg>